<svg xmlns="http://www.w3.org/2000/svg" viewBox="0 0 1800 760">
  <defs>
    <linearGradient id="bg" x1="0" y1="0" x2="1" y2="1">
      <stop stop-color="#ffffff"/>
      <stop offset=".45" stop-color="#f8fbff"/>
      <stop offset="1" stop-color="#eaf7ff"/>
    </linearGradient>
    <linearGradient id="rainbow" x1="0" y1="0" x2="1" y2="0">
      <stop stop-color="#ed1e8f"/>
      <stop offset=".25" stop-color="#ffd31a"/>
      <stop offset=".5" stop-color="#35d86a"/>
      <stop offset=".75" stop-color="#159fe8"/>
      <stop offset="1" stop-color="#5b2bbf"/>
    </linearGradient>
    <pattern id="mesh" width="46" height="46" patternUnits="userSpaceOnUse">
      <path d="M0 23h46M23 0v46M0 0l46 46M46 0 0 46" stroke="#159fe8" stroke-opacity=".08" stroke-width="1"/>
    </pattern>
    <filter id="shadow" x="-30%" y="-30%" width="160%" height="160%">
      <feDropShadow dx="0" dy="22" stdDeviation="24" flood-color="#082247" flood-opacity=".14"/>
    </filter>
  </defs>
  <rect width="1800" height="760" fill="url(#bg)"/>
  <rect width="1800" height="760" fill="url(#mesh)"/>
  <circle cx="1450" cy="170" r="230" fill="#159fe8" opacity=".13"/>
  <circle cx="1620" cy="555" r="280" fill="#ed1e8f" opacity=".09"/>
  <circle cx="1030" cy="620" r="230" fill="#ffd31a" opacity=".13"/>
  <g filter="url(#shadow)">
    <path d="M1035 180c220-70 430-35 635 100v290c-200-120-410-155-635-78z" fill="#ffffff"/>
    <path d="M1080 230c175-52 345-30 520 66v58c-168-84-335-103-520-55z" fill="#ed1e8f" opacity=".52"/>
    <path d="M1080 306c180-52 350-27 520 62v58c-172-80-340-96-520-48z" fill="#ffd31a" opacity=".66"/>
    <path d="M1080 382c180-50 350-27 520 62v58c-174-78-342-95-520-48z" fill="#35d86a" opacity=".58"/>
    <path d="M1080 458c178-50 348-25 520 62v58c-174-74-342-94-520-48z" fill="#159fe8" opacity=".62"/>
  </g>
  <g filter="url(#shadow)">
    <rect x="1120" y="115" width="118" height="490" rx="59" fill="#ffffff"/>
    <rect x="1290" y="80" width="118" height="540" rx="59" fill="#ffffff"/>
    <rect x="1460" y="130" width="118" height="465" rx="59" fill="#ffffff"/>
    <path d="M1179 150v420M1349 115v470M1519 165v395" stroke="url(#rainbow)" stroke-width="10" opacity=".35"/>
  </g>
  <path d="M0 660c230-95 410-90 630-24 210 63 420 75 675-45 170-80 335-84 495-47v216H0z" fill="#082247" opacity=".08"/>
  <rect width="18" height="760" fill="url(#rainbow)"/>
  <rect x="120" y="622" width="430" height="10" rx="5" fill="url(#rainbow)" opacity=".82"/>
</svg>
